<mxfile host="app.diagrams.net" modified="2023-02-14T11:49:55.998Z" agent="5.0 (Windows NT 10.0; Win64; x64) AppleWebKit/537.36 (KHTML, like Gecko) Chrome/110.0.0.0 Safari/537.36" etag="nogp2JZWt4Q-VXdOGKLw" version="20.8.20" type="github">
  <diagram name="Page-1" id="i9JldPu26YtMo8hkxbtT">
    <mxGraphModel dx="623" dy="565" grid="1" gridSize="10" guides="1" tooltips="1" connect="1" arrows="1" fold="1" page="1" pageScale="1" pageWidth="850" pageHeight="1100" math="0" shadow="0">
      <root>
        <mxCell id="0" />
        <mxCell id="1" parent="0" />
        <mxCell id="0PBJIJ77ZZeBExuxqklM-14" style="edgeStyle=orthogonalEdgeStyle;rounded=0;orthogonalLoop=1;jettySize=auto;html=1;entryX=0.5;entryY=0;entryDx=0;entryDy=0;fontSize=10;startArrow=none;" edge="1" parent="1" source="0PBJIJ77ZZeBExuxqklM-15" target="0PBJIJ77ZZeBExuxqklM-3">
          <mxGeometry relative="1" as="geometry">
            <mxPoint x="350" y="70" as="sourcePoint" />
            <Array as="points">
              <mxPoint x="170" y="160" />
              <mxPoint x="170" y="160" />
            </Array>
          </mxGeometry>
        </mxCell>
        <mxCell id="0PBJIJ77ZZeBExuxqklM-1" value="Unity Applikation&lt;br&gt;&lt;font style=&quot;font-size: 10px;&quot;&gt;Monobehaviour&lt;/font&gt;" style="rounded=0;whiteSpace=wrap;html=1;" vertex="1" parent="1">
          <mxGeometry x="320" y="10" width="120" height="60" as="geometry" />
        </mxCell>
        <mxCell id="0PBJIJ77ZZeBExuxqklM-16" style="edgeStyle=orthogonalEdgeStyle;rounded=0;orthogonalLoop=1;jettySize=auto;html=1;entryX=0;entryY=0.5;entryDx=0;entryDy=0;fontSize=10;startArrow=none;" edge="1" parent="1" source="0PBJIJ77ZZeBExuxqklM-18" target="0PBJIJ77ZZeBExuxqklM-11">
          <mxGeometry relative="1" as="geometry">
            <Array as="points">
              <mxPoint x="320" y="240" />
              <mxPoint x="320" y="240" />
            </Array>
          </mxGeometry>
        </mxCell>
        <mxCell id="0PBJIJ77ZZeBExuxqklM-3" value="Player Controller&lt;br&gt;[komponent]" style="rounded=0;whiteSpace=wrap;html=1;" vertex="1" parent="1">
          <mxGeometry x="110" y="210" width="120" height="60" as="geometry" />
        </mxCell>
        <mxCell id="0PBJIJ77ZZeBExuxqklM-21" style="edgeStyle=orthogonalEdgeStyle;rounded=0;orthogonalLoop=1;jettySize=auto;html=1;fontSize=10;entryX=1;entryY=0.5;entryDx=0;entryDy=0;startArrow=none;" edge="1" parent="1" source="0PBJIJ77ZZeBExuxqklM-22" target="0PBJIJ77ZZeBExuxqklM-1">
          <mxGeometry relative="1" as="geometry">
            <mxPoint x="620" y="110" as="targetPoint" />
            <Array as="points">
              <mxPoint x="605" y="40" />
            </Array>
          </mxGeometry>
        </mxCell>
        <mxCell id="0PBJIJ77ZZeBExuxqklM-11" value="Scen-kontext&lt;br&gt;[Container]" style="rounded=0;whiteSpace=wrap;html=1;" vertex="1" parent="1">
          <mxGeometry x="410" y="210" width="120" height="60" as="geometry" />
        </mxCell>
        <mxCell id="0PBJIJ77ZZeBExuxqklM-17" value="" style="edgeStyle=orthogonalEdgeStyle;rounded=0;orthogonalLoop=1;jettySize=auto;html=1;entryX=0;entryY=0.5;entryDx=0;entryDy=0;fontSize=10;endArrow=none;" edge="1" parent="1" target="0PBJIJ77ZZeBExuxqklM-18">
          <mxGeometry relative="1" as="geometry">
            <mxPoint x="230" y="240" as="sourcePoint" />
            <mxPoint x="330" y="240" as="targetPoint" />
          </mxGeometry>
        </mxCell>
        <mxCell id="0PBJIJ77ZZeBExuxqklM-18" value="Player Controller&lt;br&gt;uppdaterar scen-kontext" style="text;html=1;align=center;verticalAlign=middle;resizable=0;points=[];autosize=1;strokeColor=none;fillColor=none;fontSize=10;" vertex="1" parent="1">
          <mxGeometry x="250" y="220" width="130" height="40" as="geometry" />
        </mxCell>
        <mxCell id="0PBJIJ77ZZeBExuxqklM-19" value="" style="edgeStyle=orthogonalEdgeStyle;rounded=0;orthogonalLoop=1;jettySize=auto;html=1;entryX=0.429;entryY=0.006;entryDx=0;entryDy=0;fontSize=10;endArrow=none;entryPerimeter=0;" edge="1" parent="1" target="0PBJIJ77ZZeBExuxqklM-15">
          <mxGeometry relative="1" as="geometry">
            <mxPoint x="350" y="70" as="sourcePoint" />
            <mxPoint x="170" y="210" as="targetPoint" />
            <Array as="points">
              <mxPoint x="350" y="100" />
              <mxPoint x="170" y="100" />
            </Array>
          </mxGeometry>
        </mxCell>
        <mxCell id="0PBJIJ77ZZeBExuxqklM-15" value="Indata från hårdvaran&lt;br&gt;tas in i &quot;player Controller&quot;" style="text;html=1;align=center;verticalAlign=middle;resizable=0;points=[];autosize=1;strokeColor=none;fillColor=none;fontSize=10;" vertex="1" parent="1">
          <mxGeometry x="110" y="110" width="140" height="40" as="geometry" />
        </mxCell>
        <mxCell id="0PBJIJ77ZZeBExuxqklM-23" value="" style="edgeStyle=orthogonalEdgeStyle;rounded=0;orthogonalLoop=1;jettySize=auto;html=1;fontSize=10;endArrow=none;" edge="1" parent="1" source="0PBJIJ77ZZeBExuxqklM-11" target="0PBJIJ77ZZeBExuxqklM-22">
          <mxGeometry relative="1" as="geometry">
            <mxPoint x="440" y="40" as="targetPoint" />
            <mxPoint x="530" y="240" as="sourcePoint" />
            <Array as="points">
              <mxPoint x="605" y="240" />
            </Array>
          </mxGeometry>
        </mxCell>
        <mxCell id="0PBJIJ77ZZeBExuxqklM-22" value="Instruktioner om utdata &lt;br&gt;uppdateras" style="text;html=1;align=center;verticalAlign=middle;resizable=0;points=[];autosize=1;strokeColor=none;fillColor=none;fontSize=10;" vertex="1" parent="1">
          <mxGeometry x="540" y="140" width="130" height="40" as="geometry" />
        </mxCell>
      </root>
    </mxGraphModel>
  </diagram>
</mxfile>
